<svg width="100" height="147" viewBox="0 0 100 147" fill="none" xmlns="http://www.w3.org/2000/svg">
<circle cx="67.3076" cy="136.89" r="9.61539" fill="white"/>
<path fill-rule="evenodd" clip-rule="evenodd" d="M50 121.231C77.6142 121.231 100 100.444 100 74.8022C100 49.1604 77.6142 28.3737 50 28.3737C22.3858 28.3737 0 49.1604 0 74.8022C0 100.444 22.3858 121.231 50 121.231ZM50 105.297C68.2072 105.297 82.967 91.6438 82.967 74.8022C82.967 57.9605 68.2072 44.3077 50 44.3077C31.7928 44.3077 17.033 57.9605 17.033 74.8022C17.033 91.6438 31.7928 105.297 50 105.297Z" fill="white"/>
<path fill-rule="evenodd" clip-rule="evenodd" d="M22.8791 0H2V46.4456C6.86007 38.5745 14.1316 32.1514 22.8791 28.0451V0Z" fill="white"/>
<circle cx="32.1429" cy="136.89" r="9.61539" fill="white"/>
<mask id="mask0_377_17" style="mask-type:alpha" maskUnits="userSpaceOnUse" x="0" y="28" width="100" height="94">
<path fill-rule="evenodd" clip-rule="evenodd" d="M50 121.231C77.6142 121.231 100 100.444 100 74.8022C100 49.1604 77.6142 28.3737 50 28.3737C22.3858 28.3737 0 49.1604 0 74.8022C0 100.444 22.3858 121.231 50 121.231ZM50 105.297C68.2072 105.297 82.967 91.6438 82.967 74.8022C82.967 57.9605 68.2072 44.3077 50 44.3077C31.7928 44.3077 17.033 57.9605 17.033 74.8022C17.033 91.6438 31.7928 105.297 50 105.297Z" fill="#947878"/>
</mask>
<g mask="url(#mask0_377_17)">
<circle cx="49.7253" cy="130.846" r="60.7143" fill="#D8E8F7"/>
</g>
</svg>
